<svg width="263" height="727" viewBox="0 0 263 727" fill="none" xmlns="http://www.w3.org/2000/svg">
<path d="M107.428 344.388H110.004L104.851 0H102.275L102.378 6.87061H44.6311L44.7339 0H42.1574L37.0044 344.388H39.5809L39.915 322.059H107.094L107.428 344.388ZM103.714 96.1882H43.2947L43.9243 54.1059H103.085L103.714 96.1882ZM103.753 98.7647L104.382 140.847H42.6265L43.2561 98.7647H103.753ZM104.421 143.424L105.051 185.506H41.9583L42.5879 143.424H104.421ZM105.089 188.082L105.719 230.165H41.29L41.9197 188.082H105.089ZM105.757 232.741L106.387 274.824H40.6218L41.2514 232.741H105.757ZM102.416 9.44708L103.046 51.5294H43.9629L44.5925 9.44708H102.416ZM39.9536 319.482L40.5833 277.4H106.426L107.055 319.482H39.9536Z" fill="#3F3D56"/>
<path d="M60.7413 118.618C83.9441 118.618 102.754 99.8088 102.754 76.6061C102.754 53.4033 83.9441 34.5938 60.7413 34.5938C37.5386 34.5938 18.729 53.4033 18.729 76.6061C18.729 99.8088 37.5386 118.618 60.7413 118.618Z" fill="#2F2E41"/>
<path d="M85.4532 105.64L72.894 107.914L76.9675 130.416L89.5266 128.142L85.4532 105.64Z" fill="#2F2E41"/>
<path d="M60.335 110.187L47.7759 112.461L51.8493 134.963L64.4085 132.689L60.335 110.187Z" fill="#2F2E41"/>
<path d="M58.5164 139.698C62.999 135.902 65.4788 131.462 64.0552 129.781C62.6316 128.1 57.8436 129.814 53.361 133.611C48.8785 137.407 46.3987 141.847 47.8223 143.528C49.2459 145.209 54.0338 143.494 58.5164 139.698Z" fill="#2F2E41"/>
<path d="M83.1111 135.246C87.5937 131.449 90.0735 127.009 88.6499 125.328C87.2263 123.647 82.4384 125.362 77.9558 129.158C73.4732 132.954 70.9934 137.395 72.417 139.076C73.8406 140.757 78.6286 139.042 83.1111 135.246Z" fill="#2F2E41"/>
<path d="M57.8 80.6882C65.7301 80.6882 72.1587 74.2596 72.1587 66.3296C72.1587 58.3995 65.7301 51.9709 57.8 51.9709C49.87 51.9709 43.4414 58.3995 43.4414 66.3296C43.4414 74.2596 49.87 80.6882 57.8 80.6882Z" fill="#F1E8F3"/>
<path d="M51.8985 65.9692C54.5419 65.9692 56.6848 63.8263 56.6848 61.1829C56.6848 58.5396 54.5419 56.3967 51.8985 56.3967C49.2552 56.3967 47.1123 58.5396 47.1123 61.1829C47.1123 63.8263 49.2552 65.9692 51.8985 65.9692Z" fill="#3F3D56"/>
<path d="M93.883 30.9013C94.5147 15.3477 81.1098 2.17366 63.9422 1.47633C46.7745 0.778997 32.3452 12.8223 31.7134 28.3759C31.0816 43.9295 43.0153 47.4634 60.1829 48.1608C77.3506 48.8582 93.2512 46.4548 93.883 30.9013Z" fill="#72477A"/>
<path d="M42.4237 73.6455C43.2374 70.0955 34.73 65.1164 23.4219 62.5244C12.1138 59.9324 2.28706 60.709 1.47335 64.259C0.659643 67.8089 9.16705 72.788 20.4752 75.38C31.7833 77.972 41.61 77.1954 42.4237 73.6455Z" fill="#2F2E41"/>
<path d="M124.892 87.3598C125.706 83.8098 117.199 78.8308 105.891 76.2388C94.5825 73.6468 84.7558 74.4234 83.9421 77.9733C83.1284 81.5233 91.6358 86.5024 102.944 89.0944C114.252 91.6864 124.079 90.9098 124.892 87.3598Z" fill="#2F2E41"/>
<path d="M103.58 646.677C106.439 645.861 106.648 637.816 104.047 628.709C101.447 619.601 97.0206 612.88 94.1616 613.697C91.3026 614.513 91.0931 622.558 93.6938 631.665C96.2945 640.772 100.72 647.493 103.58 646.677Z" fill="#2F2E41"/>
<path d="M122.976 699.465C141.866 698.065 156.046 681.617 154.646 662.726C153.247 643.835 136.798 629.656 117.907 631.055C99.0166 632.455 84.8372 648.903 86.2367 667.794C87.6362 686.685 104.085 700.864 122.976 699.465Z" fill="#2F2E41"/>
<path d="M133.675 693.433L123.295 692.529L123.386 714.978L131.951 713.434L133.675 693.433Z" fill="#2F2E41"/>
<path d="M111.04 691.519L100.66 690.614L100.75 713.064L108.942 711.429L111.04 691.519Z" fill="#2F2E41"/>
<path d="M100.364 714.085C105.159 714.152 109.066 712.748 109.091 710.95C109.116 709.152 105.249 707.64 100.454 707.573C95.6592 707.506 91.7516 708.91 91.7266 710.708C91.7015 712.506 95.5684 714.018 100.364 714.085Z" fill="#2F2E41"/>
<path d="M119.313 668.212C125.762 668.774 131.446 664.001 132.008 657.552C132.57 651.102 127.798 645.418 121.348 644.856C114.898 644.294 109.214 649.067 108.652 655.516C108.09 661.966 112.863 667.65 119.313 668.212Z" fill="#F1E8F3"/>
<path d="M119.991 660.427C122.141 660.614 124.036 659.023 124.223 656.873C124.41 654.724 122.819 652.829 120.67 652.641C118.52 652.454 116.625 654.045 116.438 656.195C116.25 658.345 117.841 660.239 119.991 660.427Z" fill="#3F3D56"/>
<path d="M162.657 648.18C168.924 641.079 172.197 633.728 169.968 631.76C167.739 629.793 160.851 633.954 154.584 641.056C148.316 648.157 145.043 655.508 147.272 657.476C149.502 659.443 156.389 655.282 162.657 648.18Z" fill="#2F2E41"/>
<path d="M102.235 681.425C102.475 678.669 110.047 673.845 117.922 674.531C125.797 675.218 132.504 683.621 132.264 686.377C132.024 689.133 124.927 685.199 117.052 684.512C109.177 683.826 101.995 684.182 102.235 681.425Z" fill="#F1E8F3"/>
<path d="M218.717 645.373L33.9395 603.145C32.4991 602.814 31.2488 601.925 30.4628 600.673C29.6768 599.421 29.4193 597.909 29.7468 596.468L63.9906 446.627C64.3216 445.187 65.2104 443.936 66.4621 443.15C67.7138 442.364 69.2261 442.107 70.6673 442.435L255.445 484.663C256.885 484.994 258.136 485.882 258.922 487.134C259.708 488.386 259.965 489.898 259.638 491.339L225.394 641.18C225.063 642.62 224.174 643.871 222.922 644.657C221.671 645.443 220.158 645.7 218.717 645.373V645.373Z" fill="#72477A"/>
<path d="M155.837 592.198L61.5031 570.64C61.3846 570.614 61.2687 570.578 61.1569 570.531L123.434 503.447C123.816 503.028 124.303 502.718 124.844 502.548C125.386 502.379 125.962 502.356 126.515 502.483C127.068 502.609 127.578 502.88 127.992 503.268C128.406 503.655 128.709 504.146 128.872 504.69L146.962 563.394L147.83 566.203L155.837 592.198Z" fill="#F1E8F3"/>
<path d="M208.362 604.202L126.771 585.556L147.83 566.203L149.346 564.809L176.789 539.589C177.257 539.215 177.8 538.943 178.38 538.793C178.96 538.642 179.566 538.615 180.158 538.713C180.749 538.812 181.313 539.034 181.814 539.364C182.314 539.695 182.739 540.127 183.061 540.633C183.141 540.774 183.212 540.92 183.273 541.071L208.362 604.202Z" fill="#F1E8F3"/>
<path d="M162.245 532.098C170.132 532.785 177.083 526.948 177.77 519.061C178.457 511.174 172.621 504.223 164.734 503.536C156.846 502.848 149.895 508.685 149.208 516.572C148.521 524.459 154.357 531.41 162.245 532.098Z" fill="#F1E8F3"/>
<path d="M89.9221 458.276L72.8418 454.372L68.9383 471.452L86.0186 475.356L89.9221 458.276Z" fill="#3F3D56"/>
<path d="M156.356 636.372C160.192 624.256 152.46 611.003 139.088 606.769C125.715 602.535 111.764 608.924 107.929 621.04C104.093 633.156 112.734 638.5 126.107 642.734C139.48 646.968 152.52 648.488 156.356 636.372Z" fill="#F2F2F2"/>
<path d="M123.133 716.014C127.928 716.081 131.835 714.677 131.86 712.879C131.885 711.081 128.018 709.569 123.223 709.502C118.428 709.435 114.521 710.839 114.496 712.637C114.471 714.435 118.337 715.947 123.133 716.014Z" fill="#2F2E41"/>
</svg>
