<svg width="261" height="468" viewBox="0 0 261 468" fill="none" xmlns="http://www.w3.org/2000/svg">
<path d="M43.0673 334.118C66.8528 334.118 86.1347 314.836 86.1347 291.051C86.1347 267.265 66.8528 247.983 43.0673 247.983C19.2819 247.983 0 267.265 0 291.051C0 314.836 19.2819 334.118 43.0673 334.118Z" fill="#2F2E41"/>
<path d="M36.5256 324.851H23.4419V348.292H36.5256V324.851Z" fill="#2F2E41"/>
<path d="M62.6931 324.851H49.6094V348.292H62.6931V324.851Z" fill="#2F2E41"/>
<path d="M34.3445 352.653C40.3662 352.653 45.2477 350.823 45.2477 348.565C45.2477 346.307 40.3662 344.476 34.3445 344.476C28.3229 344.476 23.4414 346.307 23.4414 348.565C23.4414 350.823 28.3229 352.653 34.3445 352.653Z" fill="#2F2E41"/>
<path d="M60.5125 352.108C66.5341 352.108 71.4156 350.278 71.4156 348.02C71.4156 345.761 66.5341 343.931 60.5125 343.931C54.4909 343.931 49.6094 345.761 49.6094 348.02C49.6094 350.278 54.4909 352.108 60.5125 352.108Z" fill="#2F2E41"/>
<path d="M44.1577 294.867C52.2869 294.867 58.8769 288.277 58.8769 280.148C58.8769 272.018 52.2869 265.428 44.1577 265.428C36.0285 265.428 29.4385 272.018 29.4385 280.148C29.4385 288.277 36.0285 294.867 44.1577 294.867Z" fill="#F1E8F3"/>
<path d="M44.1574 285.054C46.8671 285.054 49.0638 282.857 49.0638 280.148C49.0638 277.438 46.8671 275.241 44.1574 275.241C41.4477 275.241 39.251 277.438 39.251 280.148C39.251 282.857 41.4477 285.054 44.1574 285.054Z" fill="#3F3D56"/>
<path d="M1.29051 250.999C-2.18697 235.426 8.92918 219.689 26.1191 215.851C43.3091 212.012 60.0633 221.526 63.5408 237.1C67.0183 252.673 55.6259 258.417 38.436 262.256C21.246 266.094 4.76804 266.573 1.29051 250.999Z" fill="#72477A"/>
<path d="M181.983 45.9042C186.229 34.7953 186.844 24.7092 183.356 23.3762C179.869 22.0433 173.6 29.9682 169.354 41.0772C165.108 52.1861 164.493 62.2722 167.98 63.6052C171.467 64.9382 177.737 57.0132 181.983 45.9042Z" fill="#2F2E41"/>
<path d="M178.372 82.9115C182.182 59.4332 166.238 37.3116 142.76 33.5016C119.281 29.6916 97.1598 45.636 93.3498 69.1143C89.5398 92.5926 105.484 114.714 128.962 118.524C152.441 122.334 174.562 106.39 178.372 82.9115Z" fill="#2F2E41"/>
<path d="M129.32 109.812H116.236V133.254H129.32V109.812Z" fill="#2F2E41"/>
<path d="M155.487 109.812H142.403V133.254H155.487V109.812Z" fill="#2F2E41"/>
<path d="M127.139 137.615C133.161 137.615 138.042 135.785 138.042 133.527C138.042 131.269 133.161 129.438 127.139 129.438C121.117 129.438 116.236 131.269 116.236 133.527C116.236 135.785 121.117 137.615 127.139 137.615Z" fill="#2F2E41"/>
<path d="M153.306 137.07C159.328 137.07 164.21 135.24 164.21 132.982C164.21 130.723 159.328 128.893 153.306 128.893C147.285 128.893 142.403 130.723 142.403 132.982C142.403 135.24 147.285 137.07 153.306 137.07Z" fill="#2F2E41"/>
<path d="M136.952 79.8288C145.081 79.8288 151.671 73.2388 151.671 65.1096C151.671 56.9804 145.081 50.3904 136.952 50.3904C128.822 50.3904 122.232 56.9804 122.232 65.1096C122.232 73.2388 128.822 79.8288 136.952 79.8288Z" fill="#F1E8F3"/>
<path d="M136.951 70.016C139.661 70.016 141.858 67.8193 141.858 65.1095C141.858 62.3998 139.661 60.2031 136.951 60.2031C134.242 60.2031 132.045 62.3998 132.045 65.1095C132.045 67.8193 134.242 70.016 136.951 70.016Z" fill="#3F3D56"/>
<path d="M94.0845 35.9995C90.607 20.4257 101.723 4.68901 118.913 0.850632C136.103 -2.98775 152.857 6.5257 156.335 22.0995C159.812 37.6733 148.42 43.4172 131.23 47.2555C114.04 51.0939 97.5619 51.5733 94.0845 35.9995Z" fill="#72477A"/>
<path d="M106.809 65.2571C108.409 61.8838 100.995 55.0178 90.2501 49.9214C79.5047 44.825 69.4968 43.4282 67.8969 46.8015C66.297 50.1748 73.7109 57.0409 84.4563 62.1372C95.2017 67.2336 105.21 68.6304 106.809 65.2571Z" fill="#2F2E41"/>
<path d="M114.707 91.5498C114.707 95.765 125.56 104.088 137.603 104.088C149.646 104.088 160.938 92.2214 160.938 88.0063C160.938 83.7912 149.646 88.8241 137.603 88.8241C125.56 88.8241 114.707 87.3347 114.707 91.5498Z" fill="#F1E8F3"/>
<path d="M252.983 376.047C257.229 364.938 257.844 354.852 254.356 353.519C250.869 352.186 244.6 360.111 240.354 371.22C236.108 382.329 235.493 392.415 238.98 393.748C242.467 395.081 248.737 387.156 252.983 376.047Z" fill="#2F2E41"/>
<path d="M249.372 413.054C253.182 389.576 237.238 367.454 213.76 363.644C190.281 359.834 168.16 375.779 164.35 399.257C160.54 422.735 176.484 444.857 199.962 448.667C223.441 452.477 245.562 436.533 249.372 413.054Z" fill="#2F2E41"/>
<path d="M200.319 439.955H187.235V463.397H200.319V439.955Z" fill="#2F2E41"/>
<path d="M226.487 439.955H213.403V463.397H226.487V439.955Z" fill="#2F2E41"/>
<path d="M198.138 467.758C204.16 467.758 209.042 465.928 209.042 463.67C209.042 461.412 204.16 459.581 198.138 459.581C192.117 459.581 187.235 461.412 187.235 463.67C187.235 465.928 192.117 467.758 198.138 467.758Z" fill="#2F2E41"/>
<path d="M224.306 467.213C230.328 467.213 235.209 465.383 235.209 463.125C235.209 460.866 230.328 459.036 224.306 459.036C218.284 459.036 213.403 460.866 213.403 463.125C213.403 465.383 218.284 467.213 224.306 467.213Z" fill="#2F2E41"/>
<path d="M165.084 364.999C161.607 349.426 172.723 333.689 189.913 329.851C207.103 326.012 223.857 335.526 227.335 351.1C230.812 366.673 219.42 372.417 202.23 376.256C185.04 380.094 168.562 380.573 165.084 364.999Z" fill="#72477A"/>
<path d="M177.809 395.4C179.409 392.027 171.995 385.161 161.25 380.064C150.505 374.968 140.497 373.571 138.897 376.945C137.297 380.318 144.711 387.184 155.456 392.28C166.202 397.377 176.21 398.774 177.809 395.4Z" fill="#2F2E41"/>
</svg>
