<svg width="100" height="50" viewBox="0 0 100 50" fill="none" xmlns="http://www.w3.org/2000/svg">
<path d="M2.73584 25.0071V47.4468H7.93214H13.1284V25.0071V2.56735H7.93214H2.73584V25.0071Z" fill="black"/>
<path d="M21.3892 7.59071V12.6396L38.8967 12.6141L56.4309 12.5631L56.4042 11.7217C56.3776 11.2372 56.3509 8.9932 56.3243 6.69823L56.2976 2.56728H38.8434H21.3892V7.59071Z" fill="black"/>
<path d="M62.1602 7.59079V12.6397H68.2092H74.2849L74.3648 30.0305L74.4181 47.4468H79.7476H85.0772L85.1305 30.0305L85.2104 12.6397H91.2861H97.3351V7.59079V2.56735H79.7476H62.1602V7.59079Z" fill="black"/>
<path d="M21.4959 20.2386C21.4426 20.4171 21.4159 22.6865 21.4426 25.262L21.5225 29.9794L38.9235 30.0559L56.2978 30.1069V25.007V19.9071H38.9768C25.12 19.9071 21.6025 19.9836 21.4959 20.2386Z" fill="black"/>
<path d="M21.3892 42.4743V47.4468H38.8434H56.2976V42.4743V37.5019H38.8434H21.3892V42.4743Z" fill="black"/>
<path d="M56.296 19.8958H21.4312V30.1184H56.296V19.8958Z" fill="#964F9F"/>
<path d="M56.3082 37.4951H21.3516V47.4443H56.3082V37.4951Z" fill="#964F9F"/>
<path d="M56.4353 2.56396H21.3613V12.6649H56.4353V2.56396Z" fill="#53264D"/>
<path d="M13.1474 2.55005H2.66479V47.4501H13.1474V2.55005Z" fill="#53264D"/>
<path d="M97.3309 2.55444H62.1624V12.6441H97.3309V2.55444Z" fill="#53264D"/>
<path d="M85.1925 12.0708H74.2856V47.4442H85.1925V12.0708Z" fill="#53264D"/>
</svg>
