<svg width="100" height="66" viewBox="0 0 100 66" fill="none" xmlns="http://www.w3.org/2000/svg">
<path d="M12.5968 2.00108L1.85913 33.3105L14.6571 37.6996L25.3948 6.39019L12.5968 2.00108Z" fill="#964F9F"/>
<path d="M34.6921 4.652L33.4472 5.26423C31.8963 6.01932 30.08 6.12136 28.4678 5.54994L26.3862 4.81526C26.2637 4.73363 26.1413 4.67241 26.0188 4.63159L13.2028 0.243927C12.2436 -0.0825966 11.1824 0.427597 10.8559 1.38676L0.100984 32.7127C-0.0622779 33.182 -0.0214624 33.6922 0.182615 34.1208C0.386693 34.5494 0.77444 34.8963 1.24382 35.0595L14.0395 39.4472C14.2436 39.5084 14.4476 39.5492 14.6313 39.5492C15.4068 39.5492 16.1211 39.0595 16.3864 38.3044L26.529 8.79477L27.2229 9.03967C29.7738 9.93761 32.6309 9.77435 35.0799 8.5907L36.3247 7.97846C37.8553 7.22338 39.6512 7.12134 41.2634 7.67235L64.7935 15.7742C64.5486 16.7538 64.0589 17.917 63.1609 18.5497C62.1609 19.2435 60.6712 19.2435 58.712 18.5701L48.2225 14.9783C47.7327 14.8151 47.2021 14.8559 46.7531 15.1008C46.3041 15.3457 45.9776 15.7742 45.8347 16.264C45.8143 16.3252 44.3654 21.7537 39.7328 24.2434C36.8145 25.8148 33.1819 25.8761 28.9167 24.4271C27.9576 24.1006 26.8964 24.6108 26.5698 25.5699C26.2433 26.5291 26.7535 27.5903 27.7127 27.9168C30.1616 28.7535 32.4677 29.1821 34.6105 29.1821C37.1002 29.1821 39.3859 28.6311 41.4675 27.5087C45.6103 25.2842 47.7531 21.3864 48.7326 19.0599L57.4876 22.0598C60.61 23.1414 63.2221 22.9782 65.2425 21.57C68.4873 19.3252 68.6506 14.7742 68.671 14.5702C68.6914 13.7539 68.1812 13.0396 67.4261 12.7743L42.4471 4.16221C39.9369 3.30509 37.1002 3.48876 34.6921 4.652ZM13.5089 35.3453L4.20294 32.1616L13.7334 4.34588L23.0393 7.52949L13.5089 35.3453Z" fill="black"/>
<path d="M71.4254 8.15675L85.9724 37.8862L98.1243 31.9402L83.5773 2.2107L71.4254 8.15675Z" fill="#72477A"/>
<path d="M83.7113 37.4472L79.3236 41.4879C75.3441 45.1409 70.8544 48.2225 65.9974 50.5898L42.7121 61.9773C41.6918 62.4875 40.4469 62.059 39.9367 61.0182C39.4265 59.9978 39.8551 58.7529 40.8959 58.2427L41.1816 58.0999L53.916 51.8755C54.8343 51.4265 55.2221 50.3245 54.7731 49.4062C54.3242 48.4878 53.2221 48.1001 52.3038 48.549L39.5693 54.7734L33.1613 57.9162C32.1409 58.4264 30.8961 57.9978 30.3859 56.957C30.141 56.4672 30.1002 55.8958 30.2838 55.3856C30.4675 54.855 30.8348 54.4469 31.3246 54.202L36.1613 51.8347L49.9977 45.0593C50.9161 44.6103 51.3038 43.5083 50.8548 42.59C50.4059 41.6716 49.3038 41.2839 48.3855 41.7328L34.5286 48.5286L33.998 48.7939L27.3859 52.0388C26.8961 52.2836 26.3247 52.3245 25.8145 52.1408C25.2839 51.9571 24.8758 51.5898 24.6309 51.1C24.1207 50.0796 24.5492 48.8347 25.59 48.3245L27.8757 47.2021L32.5491 44.9165L33.8552 44.2838L44.5897 39.0186C45.508 38.5696 45.8958 37.4676 45.4468 36.5493C44.9978 35.6309 43.8958 35.2432 42.9774 35.6921L31.345 41.3859L26.2635 43.8757C25.2431 44.3654 23.9982 43.9573 23.488 42.9165C23.2432 42.4267 23.2023 41.8553 23.386 41.3451C23.5697 40.8145 23.937 40.4063 24.4268 40.1614L33.3042 35.8146C34.2225 35.3656 34.6103 34.2636 34.1613 33.3453C33.7123 32.4269 32.6103 32.0392 31.692 32.4881L22.8146 36.835C21.4269 37.5084 20.3861 38.6921 19.8963 40.141C19.4065 41.59 19.4881 43.1614 20.1616 44.5491C20.5901 45.4062 21.2024 46.1205 21.9371 46.6511C20.6514 48.345 20.3248 50.6714 21.3248 52.7122C21.9983 54.0999 23.1819 55.1407 24.6309 55.6305C25.2431 55.8346 25.8553 55.9366 26.4676 55.9366C26.4472 56.855 26.6308 57.7733 27.0594 58.6101C28.0594 60.6508 30.1206 61.8345 32.243 61.8345C33.1001 61.8345 33.9572 61.6508 34.7735 61.2427L36.0796 60.61C36.1409 61.3039 36.3245 61.9773 36.6306 62.6304C37.6306 64.6712 39.6918 65.8548 41.8142 65.8548C42.6713 65.8548 43.5285 65.6711 44.3448 65.263L67.63 53.8755C72.8136 51.3449 77.589 48.0797 81.8338 44.1818L87.0378 39.386L98.9559 33.5493C99.8742 33.1004 100.262 31.9983 99.813 31.08L85.2419 1.38672C85.0174 0.937754 84.6501 0.611231 84.1807 0.447969C83.7113 0.284707 83.2011 0.325523 82.7725 0.5296L70.6095 6.46825C69.6912 6.91722 69.3034 8.01924 69.7524 8.93759L83.7113 37.4472ZM82.7317 4.67237L95.6498 31.1004L86.8133 35.4268L73.8952 8.99882L82.7317 4.67237Z" fill="black"/>
</svg>
