<svg width="398" height="216" viewBox="0 0 398 216" fill="none" xmlns="http://www.w3.org/2000/svg">
<rect width="398" height="216" rx="15" fill="white"/>
<path d="M23.2671 108.068V196.068H42.7671H62.2671V108.068V20.0681H42.7671H23.2671V108.068Z" fill="black"/>
<path d="M93.2671 39.7681V59.5681L158.967 59.4681L224.767 59.2681L224.667 55.9681C224.567 54.0681 224.467 45.2681 224.367 36.2681L224.267 20.0681H158.767H93.2671V39.7681Z" fill="black"/>
<path d="M246.267 39.7681V59.5681H268.967H291.767L292.067 127.768L292.267 196.068H312.267H332.267L332.467 127.768L332.767 59.5681H355.567H378.267V39.7681V20.0681H312.267H246.267V39.7681Z" fill="black"/>
<path d="M93.667 89.3681C93.467 90.0681 93.367 98.9681 93.467 109.068L93.767 127.568L159.067 127.868L224.267 128.068V108.068V88.0681H159.267C107.267 88.0681 94.067 88.3681 93.667 89.3681Z" fill="black"/>
<path d="M93.2671 176.568V196.068H158.767H224.267V176.568V157.068H158.767H93.2671V176.568Z" fill="black"/>
<path d="M224.26 88.0234H93.4238V128.113H224.26V88.0234Z" fill="#964F9F"/>
<path d="M224.306 157.042H93.1255V196.058H224.306V157.042Z" fill="#964F9F"/>
<path d="M224.783 20.0544H93.1621V59.6663H224.783V20.0544Z" fill="#53264D"/>
<path d="M62.3379 20H23V196.081H62.3379V20Z" fill="#53264D"/>
<path d="M378.251 20.0173H246.275V59.585H378.251V20.0173Z" fill="#53264D"/>
<path d="M332.699 57.3372H291.77V196.058H332.699V57.3372Z" fill="#53264D"/>
</svg>
