<svg width="342" height="287" viewBox="0 0 342 287" fill="none" xmlns="http://www.w3.org/2000/svg">
<path d="M210.443 114.323L216.574 96.1662C209.197 88.7834 199.949 83.1496 189.635 79.7542C199.712 94.9358 189.947 114.74 194.016 132.083C195.331 137.483 197.965 142.545 201.724 146.894C205.483 151.242 210.269 154.766 215.729 157.203L225.033 167.686C229.91 159.937 232.882 151.319 233.744 142.424C234.606 133.53 233.337 124.572 230.025 116.167C228.116 111.468 225.563 107.007 222.428 102.888C216.899 108.799 210.443 114.323 210.443 114.323Z" fill="#F2F2F2"/>
<path d="M176.73 116.643L173.313 97.9054C163.089 94.2891 152.049 92.9968 141.152 94.1408C157.617 103.642 158.59 125.328 170.738 139.2C174.564 143.5 179.404 146.963 184.901 149.331C190.397 151.698 196.41 152.911 202.492 152.879L215.961 158.488C216.526 149.574 214.959 140.655 211.368 132.345C207.778 124.035 202.249 116.531 195.162 110.351C191.148 106.92 186.676 103.963 181.849 101.548C179.8 109.08 176.73 116.643 176.73 116.643Z" fill="#F2F2F2"/>
<path d="M294.073 61.6131L300.37 54.4555C301.444 53.2351 301.954 51.6831 301.793 50.1271C301.632 48.5711 300.813 47.1327 299.508 46.1156C298.628 45.4293 297.564 44.9651 296.425 44.7695C295.285 44.5739 294.109 44.6537 293.014 45.0009C291.918 45.3481 290.943 45.9506 290.184 46.7482C289.425 47.5458 288.91 48.5105 288.689 49.5459L286.993 57.5159L280.556 73.3195L288.28 76.8313L294.073 61.6131Z" fill="#FFB8B8"/>
<path d="M274.763 82.0993L262.113 57.5887C261.436 56.3358 260.476 55.2266 259.296 54.3332C258.116 53.4399 256.742 52.7825 255.265 52.4038C253.787 52.0251 252.238 51.9336 250.719 52.1353C249.2 52.3369 247.744 52.8272 246.447 53.5742C244.035 54.9631 242.316 57.1544 241.658 59.6802C240.999 62.206 241.452 64.8659 242.921 67.0918L263.646 99.3947C264.817 101.17 266.579 102.559 268.677 103.362C270.775 104.165 273.1 104.339 275.314 103.86C277.11 103.471 278.765 102.667 280.118 101.525C281.472 100.384 282.478 98.9436 283.039 97.3445L290.855 75.0754L280.556 70.3929L274.763 82.0993Z" fill="#2F2E41"/>
<path d="M298.632 74.2108L290.345 73.5789C289.044 73.4784 287.84 72.9128 286.997 72.0061C286.155 71.0995 285.742 69.9259 285.849 68.7427L289.038 34.1656C289.148 32.9827 289.77 31.888 290.767 31.1217C291.764 30.3553 293.055 29.9799 294.356 30.0778L302.643 30.7097C303.944 30.8102 305.148 31.3758 305.991 32.2824C306.834 33.1891 307.247 34.3627 307.139 35.5458L303.95 70.1229C303.84 71.3058 303.218 72.4005 302.221 73.1669C301.224 73.9333 299.933 74.3087 298.632 74.2108Z" fill="#3F3D56"/>
<path d="M293.224 34.7674C292.523 34.7147 291.827 34.917 291.29 35.33C290.753 35.7429 290.417 36.3328 290.358 36.9703L287.169 71.5474C287.111 72.1849 287.334 72.8174 287.788 73.3059C288.242 73.7945 288.891 74.0993 289.592 74.1535L297.879 74.7854C298.58 74.8381 299.276 74.6358 299.813 74.2228C300.351 73.8099 300.686 73.2199 300.745 72.5825L303.934 38.0054C303.992 37.3679 303.769 36.7354 303.315 36.2468C302.861 35.7583 302.212 35.4535 301.511 35.3993L293.224 34.7674Z" fill="#D989E8"/>
<path d="M276.269 105.333H241.791V136.685H276.269V105.333Z" fill="#FFB8B8"/>
<path d="M313.75 237.765L322.945 237.764L327.321 205.511L313.748 205.511L313.75 237.765Z" fill="#FFB6B6"/>
<path d="M311.47 233.64L326.006 232.851V238.514L339.827 247.194C340.509 247.622 341.024 248.238 341.294 248.951C341.565 249.664 341.577 250.438 341.33 251.158C341.084 251.878 340.59 252.507 339.922 252.955C339.254 253.402 338.446 253.643 337.616 253.643H320.31L317.326 248.041L316.162 253.643H309.636L311.47 233.64Z" fill="#2F2E41"/>
<path d="M245.503 260.79L253.388 265.093L275.393 239.486L263.757 233.135L245.503 260.79Z" fill="#FFB6B6"/>
<path d="M245.883 256.185L258.793 262.312L255.588 267.168L262.525 281.077C262.868 281.764 262.96 282.533 262.789 283.271C262.617 284.009 262.19 284.678 261.571 285.18C260.952 285.682 260.172 285.99 259.346 286.061C258.52 286.132 257.691 285.96 256.98 285.572L242.141 277.473L242.754 271.274L238.585 275.532L232.99 272.478L245.883 256.185Z" fill="#2F2E41"/>
<path d="M60.5974 257.982C60.5066 257.982 60.4159 257.981 60.3242 257.978C59.2553 257.942 58.2116 257.673 57.2818 257.192C56.3521 256.711 55.5638 256.033 54.9841 255.216C50.642 249.315 45.3135 244.066 39.1909 239.659C35.4844 236.965 31.6112 234.461 27.8659 232.038C18.2033 225.79 9.1035 219.906 4.0522 211.776C-6.96113 194.047 6.00869 169.354 24.5373 158.279C45.3197 145.859 72.6556 143.911 99.1 143.656C101.848 143.629 104.598 143.616 107.35 143.616C154.997 143.633 202.544 147.586 249.404 155.427C264.987 158.042 281.297 161.244 294.404 169.016C307.434 176.742 315.353 188.908 314.58 200.012C313.452 216.222 294.555 228.334 277.348 231.501C260.947 234.516 243.908 232.478 225.87 230.32C221.888 229.844 217.771 229.351 213.699 228.923C169.448 224.272 86.3197 238.608 82.8029 239.22L79.3137 239.828L65.7757 255.67C65.1667 256.392 64.3826 256.976 63.4843 257.377C62.5861 257.779 61.5981 257.986 60.5974 257.982Z" fill="#964F9F"/>
<path d="M257.652 178.905H70.618C69.5387 178.905 68.5037 178.515 67.7405 177.821C66.9773 177.127 66.5486 176.186 66.5486 175.204C66.5486 174.223 66.9773 173.282 67.7405 172.588C68.5037 171.894 69.5387 171.504 70.618 171.504H257.652C258.731 171.504 259.766 171.894 260.529 172.588C261.292 173.282 261.721 174.223 261.721 175.204C261.721 176.186 261.292 177.127 260.529 177.821C259.766 178.515 258.731 178.905 257.652 178.905Z" fill="white"/>
<path d="M257.652 201.619H70.6181C70.0834 201.62 69.5537 201.525 69.0594 201.34C68.565 201.154 68.1156 200.882 67.737 200.539C67.3583 200.196 67.0578 199.788 66.8525 199.339C66.6473 198.89 66.5413 198.408 66.5408 197.922C66.5402 197.436 66.645 196.954 66.8493 196.505C67.0535 196.056 67.3531 195.647 67.731 195.303C68.1088 194.959 68.5576 194.686 69.0515 194.5C69.5454 194.314 70.0749 194.218 70.6096 194.218H257.652C258.73 194.219 259.764 194.61 260.526 195.304C261.288 195.997 261.716 196.938 261.716 197.918C261.716 198.899 261.288 199.839 260.526 200.533C259.764 201.227 258.73 201.617 257.652 201.619Z" fill="white"/>
<path d="M92.414 224.332H70.6181C69.5397 224.331 68.5061 223.94 67.7441 223.247C66.9822 222.553 66.5542 221.612 66.5542 220.632C66.5542 219.651 66.9822 218.711 67.7441 218.017C68.5061 217.323 69.5397 216.933 70.6181 216.931H92.414C93.4924 216.933 94.526 217.323 95.288 218.017C96.0499 218.711 96.4779 219.651 96.4779 220.632C96.4779 221.612 96.0499 222.553 95.288 223.247C94.526 223.94 93.4924 224.331 92.414 224.332Z" fill="white"/>
<path d="M277.489 127.71L240.626 123.709L241.687 130.065C241.687 130.065 216.725 148.355 233.813 168.535L242.063 175.851L241.303 179.289H246.602L247.17 183.437L269.96 200.591L271.268 204.101H275.021L273.187 208.091L256.267 243.875L270.285 249.818L296.102 204.813L289.489 191.249L265.699 163.87L302.545 177.104L303.174 180.009L306.561 179.426L305.907 183.701L313.096 217.342L328.326 215.504L326.76 173.645C326.643 171.357 325.861 169.138 324.495 167.214C323.13 165.289 321.228 163.727 318.984 162.687C311.177 159.041 282.338 148.909 282.338 148.909L277.489 127.71Z" fill="#2F2E41"/>
<path d="M262.724 54.3852L255.784 46.2735L245.885 45.8832L244.897 53.5124L239.991 55.5692C235.094 72.4895 234.337 90.1808 237.775 107.396C238.433 107.959 238.913 108.671 239.167 109.459C239.421 110.247 239.439 111.082 239.219 111.878L238.901 113.031L238.93 113.073C239.974 114.571 240.328 116.382 239.916 118.115L230.949 132.604C249.992 139.662 263.952 126.5 276.885 109.252L284.889 84.0581L262.724 54.3852Z" fill="#3F3D56"/>
<path d="M283.588 101.028L285.457 84.0301L260.644 50.63L259.623 51.2563L284.187 84.322L282.362 100.916L283.588 101.028Z" fill="#2F2E41"/>
<path d="M256.268 45.6075C266.377 45.6075 274.572 38.1557 274.572 28.9635C274.572 19.7712 266.377 12.3195 256.268 12.3195C246.16 12.3195 237.965 19.7712 237.965 28.9635C237.965 38.1557 246.16 45.6075 256.268 45.6075Z" fill="#FFB8B8"/>
<path d="M258.622 8.66437L256.325 8.73064L255.545 8.75315L246.805 9.00535C239.057 9.22888 233.001 15.8352 233.277 23.761C227.617 29.2675 229.605 35.904 234.495 42.9693C242.899 43.6747 251.157 45.4299 259.034 48.1852L259.988 43.8701L262.36 49.4484C264.325 50.2451 266.276 51.122 268.214 52.079C265.663 42.6576 264.419 33.2204 265.686 25.8251L269.689 25.7096L269.55 21.7264L271.048 25.6704L278.304 25.461C278.225 23.183 277.653 20.9415 276.621 18.8645C275.589 16.7875 274.117 14.9157 272.289 13.356C270.461 11.7962 268.314 10.5791 265.969 9.77416C263.624 8.96918 261.128 8.59207 258.622 8.66437Z" fill="#2F2E41"/>
<path d="M242.819 15.6762C247.579 15.6762 251.438 12.167 251.438 7.8381C251.438 3.50924 247.579 0 242.819 0C238.058 0 234.199 3.50924 234.199 7.8381C234.199 12.167 238.058 15.6762 242.819 15.6762Z" fill="#2F2E41"/>
<path d="M299.448 69.9917L305.745 62.8342C306.819 61.6138 307.329 60.0618 307.168 58.5058C307.007 56.9497 306.188 55.5114 304.883 54.4943C304.003 53.8079 302.939 53.3438 301.8 53.1481C300.66 52.9525 299.484 53.0323 298.389 53.3796C297.293 53.7268 296.318 54.3293 295.559 55.1269C294.8 55.9244 294.285 56.8892 294.064 57.9246L292.368 65.8945L285.931 81.6981L293.655 85.21L299.448 69.9917Z" fill="#FFB8B8"/>
<path d="M280.138 90.4779L267.488 65.9674C266.81 64.7144 265.851 63.6052 264.671 62.7119C263.491 61.8186 262.117 61.1612 260.639 60.7825C259.162 60.4038 257.613 60.3123 256.094 60.5139C254.574 60.7156 253.119 61.2058 251.822 61.9528C249.41 63.3417 247.691 65.5331 247.032 68.0589C246.373 70.5846 246.827 73.2445 248.296 75.4704L269.021 107.773C270.192 109.548 271.954 110.938 274.052 111.741C276.15 112.543 278.475 112.718 280.689 112.238C282.485 111.85 284.14 111.045 285.493 109.904C286.846 108.762 287.853 107.322 288.414 105.723L296.23 83.454L285.931 78.7715L280.138 90.4779Z" fill="#2F2E41"/>
</svg>
