<svg width="223" height="242" viewBox="0 0 223 242" fill="none" xmlns="http://www.w3.org/2000/svg">
<path d="M177.688 110.118L198.442 107.978C202.94 98.8798 204.927 88.9207 204.231 78.9656C192.949 93.4298 169.082 93.1981 153.222 103.516C148.303 106.769 144.251 110.987 141.368 115.857C138.485 120.727 136.844 126.124 136.567 131.649L129.713 143.592C139.474 144.564 149.35 143.6 158.661 140.766C167.973 137.933 176.498 133.298 183.65 127.18C187.624 123.711 191.103 119.802 194.003 115.543C185.836 113.294 177.688 110.118 177.688 110.118Z" fill="#F2F2F2"/>
<path d="M161.886 82.9394L179.412 72.6073C178.975 62.6401 175.869 52.9205 170.364 44.2925C167.36 61.8138 145.885 71.2854 136.75 86.9526C133.942 91.8589 132.385 97.2769 132.193 102.805C132 108.333 133.179 113.83 135.64 118.887L135.364 132.356C144.577 129.267 152.943 124.399 159.888 118.087C166.832 111.775 172.189 104.169 175.59 95.7927C177.446 91.0766 178.642 86.1666 179.149 81.1787C170.737 82.478 161.886 82.9394 161.886 82.9394Z" fill="#F2F2F2"/>
<path d="M85.7982 209.385C120.533 209.385 148.691 183.78 148.691 152.195C148.691 120.609 120.533 95.0044 85.7982 95.0044C51.0634 95.0044 22.9053 120.609 22.9053 152.195C22.9053 183.78 51.0634 209.385 85.7982 209.385Z" fill="white"/>
<path d="M85.7984 210.084C73.2076 210.084 60.8994 206.689 50.4305 200.328C39.9615 193.967 31.802 184.926 26.9836 174.348C22.1653 163.77 20.9046 152.131 23.3609 140.902C25.8173 129.672 31.8803 119.358 40.7834 111.262C49.6865 103.166 61.0296 97.6526 73.3786 95.4189C85.7275 93.1852 98.5276 94.3316 110.16 98.7129C121.793 103.094 131.735 110.514 138.73 120.034C145.725 129.553 149.459 140.746 149.459 152.195C149.44 167.542 142.727 182.257 130.792 193.109C118.858 203.962 102.676 210.066 85.7984 210.084ZM85.7984 95.703C73.5113 95.703 61.5 99.0162 51.2836 105.224C41.0671 111.431 33.1045 120.254 28.4024 130.577C23.7003 140.899 22.47 152.258 24.8671 163.216C27.2643 174.175 33.1812 184.241 41.8695 192.141C50.5579 200.042 61.6276 205.422 73.6787 207.602C85.7298 209.782 98.221 208.663 109.573 204.387C120.925 200.111 130.627 192.87 137.454 183.58C144.28 174.29 147.924 163.368 147.923 152.195C147.905 137.217 141.354 122.858 129.707 112.268C118.06 101.677 102.269 95.7198 85.7984 95.703Z" fill="#3F3D56"/>
<path d="M81.0896 175.051C80.9555 175.051 80.8215 175.047 80.6874 175.042C79.5028 174.989 78.3447 174.705 77.2924 174.208C76.24 173.711 75.3183 173.012 74.5906 172.161L64.0801 159.874C63.4163 159.098 62.9271 158.211 62.6404 157.264C62.3536 156.316 62.2749 155.327 62.4089 154.351C62.5428 153.376 62.8867 152.435 63.4209 151.58C63.9551 150.726 64.6692 149.976 65.5223 149.372L65.9005 149.105C66.7535 148.501 67.729 148.056 68.7713 147.795C69.8135 147.534 70.9021 147.462 71.9748 147.584C73.0475 147.706 74.0833 148.019 75.0229 148.505C75.9625 148.991 76.7876 149.641 77.451 150.417C77.9819 151.037 78.6537 151.545 79.4205 151.907C80.1873 152.269 81.031 152.476 81.8939 152.515C82.7569 152.553 83.6188 152.421 84.4206 152.129C85.2225 151.836 85.9454 151.39 86.54 150.82L107.88 130.333C109.383 128.894 111.451 128.056 113.632 128.002C115.813 127.948 117.929 128.683 119.515 130.045L119.865 130.349C120.649 131.024 121.28 131.834 121.72 132.731C122.161 133.629 122.403 134.596 122.432 135.579C122.461 136.561 122.277 137.539 121.89 138.457C121.504 139.374 120.922 140.214 120.179 140.927L87.0611 172.714C86.2928 173.452 85.367 174.041 84.3403 174.442C83.3135 174.844 82.2074 175.052 81.0896 175.051Z" fill="#964F9F"/>
<path d="M52.8976 225.28L44.1749 226.164L35.9106 195.392L48.7835 194.087L52.8976 225.28Z" fill="#A0616A"/>
<path d="M110.363 86.9363C110.092 86.691 109.798 86.4523 109.506 86.2254C107.255 84.5274 104.903 82.9436 102.46 81.481C99.6964 79.8067 96.5868 78.0976 93.0693 76.3331C91.3668 75.478 89.5676 74.6051 87.6717 73.7144C86.7219 73.268 85.7447 72.8183 84.7403 72.3655C84.6975 72.3427 84.6535 72.3218 84.6084 72.3031L84.3177 72.1687L63.15 88.0578L61.6463 89.1322L65.5456 93.5043C65.5456 93.5043 65.2061 96.9807 65.2141 96.9824L61.3433 105.766L61.3007 105.784L47.5101 111.507L33.2987 117.407L25.666 120.577C23.896 121.31 22.3041 122.357 20.983 123.655C19.6619 124.953 18.638 126.477 17.9708 128.138C17.2691 129.863 16.9521 131.699 17.0383 133.537C17.1245 135.375 17.6122 137.179 18.473 138.844C18.6438 139.183 18.8355 139.523 19.039 139.85L22.2107 157.984C24.1053 168.831 27.7891 179.355 33.1379 189.202L37.9822 206.177L38.7182 205.841L49.6743 200.85L52.569 199.535L53.1154 188.129C53.1774 186.83 53.1864 185.522 53.1356 184.218C53.0607 182.083 52.8362 179.954 52.4634 177.845L46.1817 142.277C47.2964 141.864 48.3961 141.449 49.4807 141.031C54.5081 139.119 59.2677 137.185 63.7597 135.231C78.3687 128.882 90.2701 122.29 99.9939 115.151C102.726 113.148 105.289 111.098 107.683 109.001C108.563 108.235 109.419 107.462 110.252 106.68C110.45 106.5 110.643 106.322 110.834 106.139C112.546 104.505 113.78 102.507 114.424 100.327C115.067 98.147 115.099 95.8551 114.517 93.6611C113.865 91.1054 112.423 88.7723 110.363 86.9363Z" fill="#2F2E41"/>
<path d="M52.1874 219.893L42.7454 220.843L41.2638 220.99L42.2279 226.089L31.2551 235.836C30.7122 236.317 30.3528 236.944 30.2294 237.625C30.1061 238.305 30.2253 239.003 30.5696 239.618C30.9139 240.232 31.4653 240.73 32.1432 241.04C32.821 241.349 33.5899 241.453 34.3373 241.336L49.9199 238.909L51.6534 233.448L53.6529 238.327L59.5225 237.414L54.4835 219.665L52.1874 219.893Z" fill="#2F2E41"/>
<path d="M61.1733 43.338L69.2582 35.5416L57.8536 12.8509L56.1572 4.88102C55.9368 3.84558 55.4214 2.88087 54.6625 2.0833C53.9037 1.28572 52.9279 0.683205 51.8328 0.335974C50.7376 -0.0112574 49.5614 -0.0910522 48.4217 0.104569C47.282 0.300189 46.2187 0.764367 45.3381 1.45072C44.0332 2.46783 43.2139 3.90617 43.053 5.46219C42.8922 7.01822 43.4024 8.57021 44.4761 9.79062L50.7731 16.9482L61.1733 43.338Z" fill="#A0616A"/>
<path d="M69.258 32.0505L60.0439 40.4291L61.8071 52.6796C62.3684 54.2787 63.3745 55.7188 64.728 56.8603C66.0814 58.0018 67.7362 58.806 69.532 59.1948C71.7462 59.6742 74.0709 59.4999 76.1689 58.6971C78.2668 57.8943 80.0291 56.5047 81.2002 54.7299L101.925 22.4269C103.394 20.201 103.847 17.5411 103.189 15.0153C102.53 12.4896 100.811 10.2982 98.3992 8.90932C97.1021 8.16234 95.6467 7.67206 94.1274 7.47042C92.6082 7.26877 91.0593 7.36029 89.5815 7.73898C88.1038 8.11768 86.7303 8.77508 85.5504 9.6684C84.3705 10.5617 83.4107 11.6709 82.7334 12.9239L70.0834 37.4344L69.258 32.0505Z" fill="#E6E6E6"/>
<path d="M59.9761 155.689C59.5 156.13 59.0225 156.565 58.5394 157.002C57.5788 157.874 56.6042 158.739 55.6268 159.593C55.1354 160.02 54.6383 160.449 54.1454 160.872L54.1495 160.887L54.1168 160.9L54.1069 160.907L53.2873 161.292L51.2474 158.56L50.3067 157.302L48.9769 155.52L46.5411 152.259L33.7156 135.093L45.2177 129.694L46.1235 131.296L46.1292 131.295L46.5772 132.09L54.9888 146.91L56.7065 149.94L56.7604 150.032L57.7922 151.841L58.6829 153.409L59.6759 155.162L59.9761 155.689Z" fill="#A0616A"/>
<path d="M57.5992 150.125L49.5925 154.773L48.3354 155.502L51.6799 159.687L46.5793 172.842C46.3265 173.492 46.309 174.199 46.5293 174.859C46.7496 175.518 47.1962 176.097 47.8039 176.509C48.4115 176.922 49.1483 177.147 49.9066 177.152C50.6649 177.156 51.405 176.94 52.0187 176.535L64.814 168.092L63.7125 162.496L67.8792 166.069L72.6993 162.889L59.5472 148.996L57.5992 150.125Z" fill="#2F2E41"/>
<path d="M104.332 166.122C103.536 167.286 102.722 168.444 101.902 169.592C100.378 171.728 98.8134 173.833 97.2083 175.906C97.2083 175.911 97.2025 175.911 97.1967 175.916C96.2602 176.705 95.2258 177.392 94.1144 177.963C94.0679 177.995 94.0156 178.016 93.969 178.042C93.1506 178.454 92.2794 178.772 91.3753 178.989C91.0496 179.063 90.7181 179.137 90.3924 179.211C89.2177 179.465 88.0546 179.682 86.8972 179.872C84.8385 180.205 82.803 180.443 80.7792 180.591C80.6163 180.607 80.4535 180.618 80.2906 180.628C71.9685 181.184 63.8673 180.29 55.4114 178.825C51.2357 178.106 46.9729 177.244 42.5588 176.35C41.1165 176.054 39.6684 175.763 38.2029 175.472C38.0924 175.451 37.9761 175.425 37.8597 175.403C35.7661 174.986 33.6376 174.573 31.4568 174.166C28.7117 173.653 30.1188 173.623 27.1761 173.153C27.1761 173.153 33.9656 179.422 35.0938 182.14C36.35 185.482 37.3445 188.127 35.245 193.632L41.7651 205.271L19.0982 208.766C6.6057 186.506 -3.37843 171.848 1.08165 163.215C1.09908 162.813 1.13401 162.406 1.19215 162.004C1.42907 160.177 2.06381 158.411 3.05932 156.809C4.05482 155.208 5.39118 153.802 6.99038 152.676C8.52281 151.586 10.278 150.785 12.154 150.319C14.03 149.852 15.9893 149.729 17.9179 149.957L22.3669 150.481L56.871 148.957L58.2261 143.933L58.4762 143.848L66.4262 141.199L93.9225 132.034L93.9923 132.013L95.8009 131.41L96.0161 131.727C96.0801 131.822 96.1441 131.918 96.2022 132.013C97.9898 134.927 99.4454 138 100.546 141.183C102.398 146.383 103.922 151.674 105.112 157.032C105.164 157.265 105.211 157.476 105.251 157.666L105.269 157.725C105.286 157.814 105.298 157.873 105.304 157.889C105.938 160.289 105.496 163.219 104.332 166.122Z" fill="#2F2E41"/>
<path d="M98.5313 68.4055L98.3325 58.3833L80.8709 56.5357L79.0395 64.9988L60.6876 80.6811C47.6396 95.1864 57.1211 105.19 57.6887 106.677L59.3023 124.968L60.3174 131.323L56.354 148.715L106.38 158.473C107.982 146.449 106.199 135.277 95.7546 126.284L101.032 111.352C103.707 107.453 105.385 103.058 105.94 98.49L106.13 96.9287C110.793 83.7159 108.031 79.2678 98.5313 68.4055Z" fill="#E6E6E6"/>
<path d="M123.03 37.082C123.041 37.3411 123.047 37.6002 123.047 37.8541C123.042 40.6549 122.308 43.415 120.906 45.9086C119.503 48.4023 117.472 50.5588 114.978 52.202C112.483 53.8451 109.597 54.9283 106.554 55.3629C103.511 55.7975 100.398 55.5713 97.47 54.7027L93.8817 53.6397C93.8526 53.6291 93.8178 53.6239 93.7887 53.6133L87.8741 51.8576C87.8548 51.6303 87.8587 51.402 87.8858 51.1754C79.0635 47.7485 91.2589 36.4897 94.2888 28.0337C94.7599 26.7169 78.5633 27.7005 79.331 26.5741C79.1623 26.4948 78.9937 26.4154 78.8367 26.3361C81.5726 22.41 85.6171 19.3819 90.3797 17.6941C95.1422 16.0064 100.373 15.7472 105.309 16.9546C105.437 16.981 105.571 17.018 105.699 17.0498C117.191 17.3089 123.227 24.5909 123.227 34.0465C123.227 35.061 123.161 36.0745 123.03 37.082Z" fill="#2F2E41"/>
<path d="M113.073 40.805C111.532 45.0989 108.178 48.6603 103.749 50.7061C99.32 52.7519 94.1791 53.1147 89.4563 51.7148C88.9212 51.5561 88.3978 51.3764 87.886 51.1754C83.5879 49.5002 80.1345 46.4235 78.2049 42.5501C76.2753 38.6767 76.009 34.287 77.4586 30.2442C77.9185 28.9569 78.5473 27.7247 79.3312 26.5741C81.739 23.0285 85.4927 20.4086 89.8818 19.2104C94.2709 18.0122 98.9907 18.3187 103.148 20.072C107.305 21.8254 110.611 24.9038 112.44 28.7246C114.27 32.5454 114.495 36.8434 113.073 40.805Z" fill="#A0616A"/>
<path d="M93.8782 53.6381C93.8468 53.6309 93.816 53.6215 93.7861 53.6101L87.8737 51.8576C87.8583 51.6272 77.0011 58.1625 77.0318 57.9321C77.2007 56.1656 89.4324 47.5496 91.2599 45.5457C92.4417 44.266 93.2635 42.7441 93.6545 41.1112C94.0455 39.4784 93.994 37.7836 93.5043 36.1729C93.0146 34.5623 92.1015 33.084 90.8437 31.8657C89.5859 30.6473 88.0212 29.7254 86.2843 29.1794C86.2316 29.1673 86.1802 29.1509 86.1307 29.1305C84.9867 28.7674 83.8886 28.3974 82.8597 28.0273C82.353 26.1072 82.0919 26.7426 80.871 25.1157C81.0937 26.596 79.0282 27.7131 78.9975 29.2073C78.5752 29.0328 78.1759 28.8512 77.7919 28.6697C77.623 28.5859 77.4618 28.5091 77.3006 28.4323C76.1161 27.9318 75.0812 27.1799 74.283 26.2399C77.2391 17.9799 88.5494 11.3678 97.633 14.0699L101.065 15.0823C105.394 16.3601 108.991 19.1439 111.07 22.8256C113.574 24.5709 115.572 26.8454 116.89 29.4517C124.4 43.1717 109.895 58.3161 93.8782 53.6381Z" fill="#2F2E41"/>
<path d="M118.715 50.6778C123.211 50.6778 126.857 47.3631 126.857 43.2741C126.857 39.1852 123.211 35.8705 118.715 35.8705C114.218 35.8705 110.573 39.1852 110.573 43.2741C110.573 47.3631 114.218 50.6778 118.715 50.6778Z" fill="#2F2E41"/>
<path d="M222.154 58.3751C220.427 65.5079 216.973 72.2008 212.043 77.966C207.112 83.7312 200.829 88.4236 193.651 91.7012C192.738 92.1131 191.808 92.4971 190.872 92.8532C190.956 89.4002 189.865 86.0079 187.747 83.141C188.091 85.4651 188.132 87.8181 187.869 90.1511C187.726 91.489 187.482 92.8164 187.14 94.124C181.116 95.9305 174.79 96.76 168.451 96.5748C168.089 94.0129 167.071 91.5641 165.479 89.4249C165.823 91.7491 165.865 94.1021 165.602 96.4351C159.23 95.9649 153.005 94.4485 147.228 91.9595C144.225 90.6608 141.277 89.0339 139.342 86.5762C136.77 83.3015 136.34 78.9795 136.969 74.9997C137.599 71.0128 139.173 67.2075 140.271 63.3115C141.369 59.4154 141.991 55.247 140.701 51.3998C139.419 47.5456 135.818 44.1174 131.402 43.8171C129.391 43.6775 127.371 44.1802 125.36 44.0126C123.348 43.8381 121.167 42.6162 121.121 40.7799L123.048 37.9311C123.862 32.9458 126.657 28.0024 131.449 25.4679C136.232 22.9264 143.112 23.471 146.529 27.4369C149.408 30.7744 149.301 35.4106 150.245 39.565C152.441 49.2144 160.926 56.9786 170.785 61.0702C180.652 65.1548 191.755 66.0136 202.597 65.846C206.313 65.7832 210.091 65.6016 213.623 64.5334C217.163 63.4581 220.464 61.3914 222.154 58.3751Z" fill="#2F2E41"/>
<path d="M37.5014 102.871L34.3129 68.294C34.2053 67.1109 34.6181 65.9373 35.4609 65.0306C36.3037 64.124 37.5076 63.5583 38.8084 63.4578L47.0958 62.8259C48.3968 62.728 49.6875 63.1035 50.6845 63.8698C51.6816 64.6362 52.3036 65.7309 52.4141 66.9138L55.6026 101.491C55.7102 102.674 55.2974 103.848 54.4546 104.754C53.6118 105.661 52.408 106.227 51.1071 106.327L42.8198 106.959C41.5187 107.057 40.2281 106.681 39.231 105.915C38.2339 105.149 37.6119 104.054 37.5014 102.871Z" fill="#3F3D56"/>
<path d="M39.9409 65.1474C39.2399 65.2016 38.5911 65.5064 38.137 65.995C37.6828 66.4836 37.4603 67.116 37.5183 67.7536L40.7068 102.331C40.7664 102.968 41.1016 103.558 41.6389 103.971C42.1762 104.384 42.8716 104.586 43.5728 104.534L51.8601 103.902C52.5611 103.847 53.2098 103.543 53.664 103.054C54.1181 102.566 54.3406 101.933 54.2826 101.296L51.0942 66.7184C51.0346 66.081 50.6994 65.4911 50.1621 65.0781C49.6248 64.6651 48.9293 64.4628 48.2282 64.5155L39.9409 65.1474Z" fill="#D989E8"/>
<path d="M53.9137 114.735L61.982 111.935L57.296 95.6302L56.475 87.5468C56.3683 86.4966 55.9604 85.4903 55.292 84.6283C54.6237 83.7664 53.7182 83.0791 52.6662 82.635C51.6142 82.191 50.4525 82.0058 49.2971 82.0979C48.1417 82.1901 47.0331 82.5563 46.0822 83.1601C44.673 84.0549 43.7012 85.4124 43.3718 86.9463C43.0425 88.4803 43.3814 90.0705 44.3171 91.3815L49.8046 99.0704L53.9137 114.735Z" fill="#A0616A"/>
<path d="M62.3005 109.023L51.5427 112.756L56.8976 135.619C57.2821 137.261 58.1266 138.784 59.3492 140.042C60.5718 141.3 62.1311 142.249 63.8757 142.797C66.027 143.473 68.3592 143.509 70.5342 142.899C72.7092 142.289 74.614 141.065 75.9724 139.404L100.11 109.124C101.814 107.041 102.554 104.435 102.173 101.862C101.793 99.2894 100.321 96.9542 98.0718 95.3551C96.8623 94.4951 95.4673 93.8763 93.9774 93.539C92.4876 93.2017 90.9363 93.1534 89.4246 93.3973C87.9129 93.6412 86.4747 94.1719 85.2034 94.9547C83.9321 95.7375 82.8563 96.7549 82.0461 97.9408L66.7917 121.193L62.3005 109.023Z" fill="#E6E6E6"/>
<path opacity="0.2" d="M53.551 121.331L58.9887 141.411L60.1168 142.659C61.0103 143.648 62.152 144.428 63.4457 144.932C64.7394 145.436 66.1474 145.651 67.5513 145.557C68.9551 145.464 70.3137 145.065 71.5127 144.395C72.7118 143.724 73.7164 142.802 74.4418 141.705L91.6749 115.65L76.1377 135.2C75.2664 136.296 74.1034 137.173 72.7577 137.749C71.4119 138.326 69.9273 138.582 68.443 138.494C66.9586 138.406 65.523 137.978 64.2706 137.248C63.0181 136.518 61.9898 135.511 61.2819 134.322L53.551 121.331Z" fill="black"/>
</svg>
