<svg xmlns="http://www.w3.org/2000/svg" xmlns:xlink="http://www.w3.org/1999/xlink" xmlns:serif="http://www.serif.com/" viewBox="0 0 100 125" version="1.1" xml:space="preserve" style="" x="0px" y="0px" fill-rule="evenodd" clip-rule="evenodd" stroke-linejoin="round" stroke-miterlimit="2"><path d="M83.187,75.733l-33.187,15.529l-33.187,-15.53l0,-29.267l0,22.019l33.187,15.53l33.187,-15.529l0,7.248Z"/><path d="M16.99,45.227c0.884,0.192 1.012,0.395 1.073,1.238l0,21.224l31.937,14.945l32.658,-15.281c0.823,-0.316 1.713,0.216 1.779,1.132l0,7.248c-0.053,0.752 -0.125,0.8 -0.72,1.132l-33.187,15.529c-0.554,0.218 -0.719,0.135 -1.06,0l-33.187,-15.53c-0.659,-0.367 -0.672,-0.452 -0.72,-1.132l0,-29.267c0.073,-1.029 0.369,-1.313 1.427,-1.238Zm1.073,29.71l31.937,14.945l31.937,-14.944l0,-4.488l-31.407,14.697c-0.328,0.128 -0.525,0.21 -1.06,0l-31.407,-14.698l0,4.488Z" style="" fill="none"/><path d="M83.187,42.467l0,22.933l-33.187,15.529l-33.187,-15.53l0,-22.932l33.187,15.528l33.187,-15.528Z"/><path d="M83.357,41.228c0.888,0.188 1.019,0.392 1.08,1.239l0,22.933c-0.053,0.752 -0.125,0.8 -0.72,1.132l-33.187,15.529c-0.328,0.129 -0.525,0.21 -1.06,0l-33.187,-15.53c-0.659,-0.367 -0.672,-0.453 -0.72,-1.132l0,-22.932c0.063,-0.881 0.921,-1.461 1.779,-1.133l32.658,15.281l32.825,-15.345c0.2,-0.045 0.07,-0.072 0.532,-0.042Zm-32.827,17.9c-0.554,0.218 -0.719,0.134 -1.06,0l-31.407,-14.697l0,20.173l31.937,14.944l31.937,-14.944l0,-20.173c-10.469,4.899 -20.938,9.798 -31.407,14.697Z" style="" fill="none"/><path d="M91.567,35.27l-41.567,19.45l-46.854,-21.923l46.854,-21.805l46.853,21.805l-2.786,1.303l0,28.673c1.115,0.484 1.895,1.594 1.895,2.886c0,1.735 -1.409,3.144 -3.145,3.144c-1.735,0 -3.144,-1.409 -3.144,-3.144c0,-1.292 0.78,-2.402 1.894,-2.886l0,-27.503Z"/><text x="0" y="115" fill="#000000" font-size="5px" font-weight="bold" font-family="'Helvetica Neue', Helvetica, Arial-Unicode, Arial, Sans-serif">Created by Stocklution</text><text x="0" y="120" fill="#000000" font-size="5px" font-weight="bold" font-family="'Helvetica Neue', Helvetica, Arial-Unicode, Arial, Sans-serif">from the Noun Project</text></svg>